<svg width="927" height="601" viewBox="0 0 927 601" fill="none" xmlns="http://www.w3.org/2000/svg">
<path d="M784.122 517.548H143.283C138.909 517.543 134.715 515.803 131.621 512.71C128.528 509.616 126.788 505.422 126.783 501.048V105.894C126.787 102.689 128.061 99.6166 130.328 97.3504C132.594 95.0842 135.666 93.8094 138.871 93.8057H788.325C791.585 93.8094 794.711 95.1062 797.016 97.4116C799.321 99.717 800.618 102.843 800.622 106.103V501.048C800.617 505.422 798.877 509.616 795.784 512.71C792.69 515.803 788.496 517.543 784.122 517.548Z" fill="#F2F2F2"/>
<path d="M763.402 496.716H166.157C157.402 496.716 150.28 490.046 150.28 481.847V137.742C150.28 131.662 155.558 126.716 162.045 126.716H767.319C773.914 126.716 779.28 131.744 779.28 137.924V481.847C779.28 490.046 772.157 496.716 763.402 496.716Z" fill="white"/>
<path d="M800.392 107.95H126.552V99.5498C126.558 95.1607 128.305 90.9533 131.41 87.8507C134.514 84.7481 138.722 83.0036 143.112 83H783.832C788.221 83.0036 792.429 84.7481 795.534 87.8507C798.639 90.9533 800.386 95.1607 800.392 99.5498V107.95Z" fill="#3F3D56"/>
<path d="M156.647 99.7834C159.013 99.7834 160.93 97.8656 160.93 95.5C160.93 93.1343 159.013 91.2166 156.647 91.2166C154.281 91.2166 152.364 93.1343 152.364 95.5C152.364 97.8656 154.281 99.7834 156.647 99.7834Z" fill="white"/>
<path d="M172.906 99.7834C175.271 99.7834 177.189 97.8656 177.189 95.5C177.189 93.1343 175.271 91.2166 172.906 91.2166C170.54 91.2166 168.622 93.1343 168.622 95.5C168.622 97.8656 170.54 99.7834 172.906 99.7834Z" fill="white"/>
<path d="M189.165 99.7834C191.53 99.7834 193.448 97.8656 193.448 95.5C193.448 93.1343 191.53 91.2166 189.165 91.2166C186.799 91.2166 184.881 93.1343 184.881 95.5C184.881 97.8656 186.799 99.7834 189.165 99.7834Z" fill="white"/>
<path d="M450.61 201.955H333.802C332.061 201.955 330.391 201.263 329.159 200.031C327.928 198.8 327.236 197.13 327.236 195.388C327.236 193.647 327.928 191.977 329.159 190.745C330.391 189.514 332.061 188.822 333.802 188.822H450.61C452.352 188.822 454.022 189.514 455.253 190.745C456.485 191.977 457.177 193.647 457.177 195.388C457.177 197.13 456.485 198.8 455.253 200.031C454.022 201.263 452.352 201.955 450.61 201.955Z" fill="#CCCCCC"/>
<path d="M595.757 201.955H478.949C477.207 201.955 475.537 201.263 474.306 200.031C473.074 198.8 472.382 197.13 472.382 195.388C472.382 193.647 473.074 191.977 474.306 190.745C475.537 189.514 477.207 188.822 478.949 188.822H595.757C597.498 188.822 599.168 189.514 600.4 190.745C601.631 191.977 602.323 193.647 602.323 195.388C602.323 197.13 601.631 198.8 600.4 200.031C599.168 201.263 597.498 201.955 595.757 201.955Z" fill="#CCCCCC"/>
<path d="M595.757 226.837H392.552C390.811 226.837 389.14 226.145 387.909 224.913C386.678 223.682 385.986 222.012 385.986 220.27C385.986 218.529 386.678 216.859 387.909 215.628C389.14 214.396 390.811 213.704 392.552 213.704H595.757C597.498 213.704 599.168 214.396 600.4 215.628C601.631 216.859 602.323 218.529 602.323 220.27C602.323 222.012 601.631 223.682 600.4 224.913C599.168 226.145 597.498 226.837 595.757 226.837Z" fill="#CCCCCC"/>
<path d="M450.61 176.727H333.802C332.062 176.725 330.394 176.032 329.165 174.801C327.935 173.57 327.244 171.901 327.244 170.161C327.244 168.421 327.935 166.752 329.165 165.521C330.394 164.289 332.062 163.597 333.802 163.594H450.61C451.473 163.593 452.328 163.762 453.126 164.092C453.923 164.421 454.648 164.905 455.259 165.515C455.869 166.125 456.354 166.849 456.684 167.646C457.015 168.443 457.185 169.298 457.185 170.161C457.185 171.024 457.015 171.878 456.684 172.675C456.354 173.472 455.869 174.197 455.259 174.806C454.648 175.416 453.923 175.9 453.126 176.229C452.328 176.559 451.473 176.728 450.61 176.727Z" fill="#CCCCCC"/>
<path d="M514.889 177.072H481.713C479.972 177.072 478.302 176.38 477.07 175.149C475.839 173.918 475.147 172.248 475.147 170.506C475.147 168.765 475.839 167.095 477.07 165.863C478.302 164.632 479.972 163.94 481.713 163.94H514.889C516.631 163.94 518.301 164.632 519.532 165.863C520.764 167.095 521.456 168.765 521.456 170.506C521.456 172.248 520.764 173.918 519.532 175.149C518.301 176.38 516.631 177.072 514.889 177.072Z" fill="#CCCCCC"/>
<path d="M366.979 226.837H333.802C332.062 226.834 330.394 226.142 329.165 224.911C327.935 223.679 327.244 222.011 327.244 220.27C327.244 218.53 327.935 216.862 329.165 215.63C330.394 214.399 332.062 213.706 333.802 213.704H366.979C367.842 213.703 368.696 213.872 369.494 214.202C370.291 214.531 371.016 215.015 371.627 215.625C372.237 216.234 372.722 216.959 373.052 217.756C373.383 218.553 373.553 219.408 373.553 220.27C373.553 221.133 373.383 221.988 373.052 222.785C372.722 223.582 372.237 224.306 371.627 224.916C371.016 225.526 370.291 226.01 369.494 226.339C368.696 226.669 367.842 226.838 366.979 226.837Z" fill="#CCCCCC"/>
<path d="M450.61 434.955H333.802C332.061 434.955 330.391 434.263 329.159 433.031C327.928 431.8 327.236 430.13 327.236 428.388C327.236 426.647 327.928 424.977 329.159 423.745C330.391 422.514 332.061 421.822 333.802 421.822H450.61C451.473 421.822 452.327 421.992 453.123 422.322C453.92 422.652 454.644 423.136 455.253 423.745C455.863 424.355 456.347 425.079 456.677 425.876C457.007 426.672 457.177 427.526 457.177 428.388C457.177 429.251 457.007 430.105 456.677 430.901C456.347 431.698 455.863 432.422 455.253 433.031C454.644 433.641 453.92 434.125 453.123 434.455C452.327 434.785 451.473 434.955 450.61 434.955Z" fill="#CCCCCC"/>
<path d="M595.757 434.955H478.949C477.207 434.955 475.537 434.263 474.306 433.031C473.074 431.8 472.382 430.13 472.382 428.388C472.382 426.647 473.074 424.977 474.306 423.745C475.537 422.514 477.207 421.822 478.949 421.822H595.757C596.619 421.822 597.473 421.992 598.269 422.322C599.066 422.652 599.79 423.136 600.4 423.745C601.009 424.355 601.493 425.079 601.823 425.876C602.153 426.672 602.323 427.526 602.323 428.388C602.323 429.251 602.153 430.105 601.823 430.901C601.493 431.698 601.009 432.422 600.4 433.031C599.79 433.641 599.066 434.125 598.269 434.455C597.473 434.785 596.619 434.955 595.757 434.955Z" fill="#CCCCCC"/>
<path d="M595.757 459.836H392.552C390.811 459.836 389.14 459.145 387.909 457.913C386.678 456.682 385.986 455.012 385.986 453.27C385.986 451.529 386.678 449.859 387.909 448.627C389.14 447.396 390.811 446.704 392.552 446.704H595.757C596.62 446.703 597.474 446.872 598.272 447.202C599.07 447.531 599.794 448.015 600.405 448.624C601.015 449.234 601.5 449.958 601.83 450.756C602.161 451.553 602.331 452.407 602.331 453.27C602.331 454.133 602.161 454.988 601.83 455.785C601.5 456.582 601.015 457.306 600.405 457.916C599.794 458.526 599.07 459.009 598.272 459.339C597.474 459.668 596.62 459.837 595.757 459.836Z" fill="#CCCCCC"/>
<path d="M450.61 409.727H333.802C332.061 409.727 330.391 409.035 329.159 407.804C327.928 406.572 327.236 404.902 327.236 403.161C327.236 401.419 327.928 399.749 329.159 398.518C330.391 397.287 332.061 396.595 333.802 396.595H450.61C452.352 396.595 454.022 397.287 455.253 398.518C456.485 399.749 457.177 401.419 457.177 403.161C457.177 404.902 456.485 406.572 455.253 407.804C454.022 409.035 452.352 409.727 450.61 409.727Z" fill="#CCCCCC"/>
<path d="M514.889 410.072H481.713C479.972 410.072 478.302 409.38 477.07 408.149C475.839 406.918 475.147 405.248 475.147 403.506C475.147 401.765 475.839 400.095 477.07 398.863C478.302 397.632 479.972 396.94 481.713 396.94H514.889C516.631 396.94 518.301 397.632 519.532 398.863C520.764 400.095 521.456 401.765 521.456 403.506C521.456 405.248 520.764 406.918 519.532 408.149C518.301 409.38 516.631 410.072 514.889 410.072Z" fill="#CCCCCC"/>
<path d="M366.979 459.836H333.802C332.061 459.836 330.391 459.145 329.159 457.913C327.928 456.682 327.236 455.012 327.236 453.27C327.236 451.529 327.928 449.859 329.159 448.627C330.391 447.396 332.061 446.704 333.802 446.704H366.979C367.842 446.703 368.696 446.872 369.494 447.202C370.291 447.531 371.016 448.015 371.627 448.624C372.237 449.234 372.722 449.958 373.052 450.756C373.383 451.553 373.553 452.407 373.553 453.27C373.553 454.133 373.383 454.988 373.052 455.785C372.722 456.582 372.237 457.306 371.627 457.916C371.016 458.526 370.291 459.009 369.494 459.339C368.696 459.668 367.842 459.837 366.979 459.836Z" fill="#CCCCCC"/>
<path d="M420.104 364.462C417.625 364.467 415.244 363.493 413.48 361.752L369.572 318.392C368.71 317.541 368.025 316.527 367.558 315.409C367.091 314.291 366.85 313.092 366.85 311.881C366.85 310.669 367.091 309.47 367.558 308.352C368.025 307.234 368.71 306.22 369.572 305.369L413.303 262.185C415.125 260.394 417.579 259.395 420.133 259.403C422.688 259.411 425.136 260.426 426.946 262.228C428.759 264.044 429.777 266.505 429.777 269.071C429.777 271.637 428.759 274.098 426.947 275.914L394.451 308.411C393.438 309.426 392.87 310.801 392.87 312.234C392.87 313.668 393.438 315.043 394.451 316.057L426.77 348.378C428.09 349.695 428.989 351.374 429.354 353.203C429.718 355.031 429.532 356.927 428.818 358.65C428.104 360.372 426.895 361.844 425.343 362.879C423.792 363.913 421.969 364.464 420.104 364.462Z" fill="#0245EF"/>
<path d="M490.069 364.462C488.205 364.464 486.381 363.913 484.83 362.879C483.279 361.844 482.069 360.372 481.356 358.65C480.642 356.927 480.455 355.031 480.82 353.203C481.184 351.374 482.083 349.695 483.403 348.378L515.723 316.057C516.735 315.043 517.304 313.668 517.304 312.234C517.304 310.801 516.735 309.426 515.723 308.411L483.227 275.914C482.328 275.016 481.615 273.949 481.129 272.774C480.642 271.6 480.392 270.342 480.392 269.071C480.392 267.8 480.642 266.541 481.129 265.367C481.615 264.193 482.328 263.126 483.227 262.228C485.037 260.426 487.485 259.411 490.04 259.403C492.594 259.395 495.048 260.394 496.87 262.185L540.602 305.369C541.464 306.22 542.148 307.234 542.615 308.352C543.082 309.47 543.323 310.669 543.323 311.881C543.323 313.092 543.082 314.292 542.615 315.409C542.148 316.527 541.464 317.541 540.602 318.392L496.693 361.752C494.929 363.493 492.548 364.467 490.069 364.462Z" fill="#0245EF"/>
</svg>
