<svg width="271" height="57" viewBox="0 0 271 57" fill="none" xmlns="http://www.w3.org/2000/svg">
<g clip-path="url(#clip0_257_215)">
<path d="M82.3842 50.396H74V8H82.3842V50.396ZM106.647 50.396H98.295V8H106.647V50.396ZM78.7955 25.916H101.471V32.924H78.7955V25.916Z" fill="#0245EF"/>
<path d="M114.339 50.396V19.004H118.404H122.469V50.396H114.339Z" fill="#0245EF"/>
<path d="M171.516 50.396L171.802 42.716L171.579 42.012V32.188L171.548 30.78C171.548 28.732 170.986 27.228 169.864 26.268C168.763 25.308 166.953 24.828 164.434 24.828C162.295 24.828 160.284 25.116 158.4 25.692C156.536 26.2467 154.811 26.8974 153.223 27.644L153.922 21.116C154.853 20.6254 155.912 20.1667 157.098 19.74C158.304 19.292 159.649 18.9294 161.131 18.652C162.613 18.3747 164.211 18.236 165.926 18.236C168.467 18.236 170.616 18.5454 172.373 19.164C174.13 19.7614 175.528 20.6254 176.565 21.756C177.624 22.8867 178.386 24.2414 178.852 25.82C179.318 27.3774 179.551 29.1054 179.551 31.004V50.396H171.516ZM161.321 51.132C158.23 51.132 155.869 50.3534 154.239 48.796C152.63 47.2387 151.826 45.02 151.826 42.14V41.244C151.826 38.1934 152.757 35.9427 154.62 34.492C156.484 33.02 159.437 32.0067 163.481 31.452L172.31 30.236L172.786 35.516L164.656 36.7C162.878 36.9347 161.607 37.3614 160.845 37.98C160.104 38.5987 159.733 39.5054 159.733 40.7V41.02C159.733 42.1934 160.093 43.1107 160.813 43.772C161.554 44.412 162.708 44.732 164.275 44.732C165.672 44.732 166.869 44.508 167.864 44.06C168.858 43.612 169.674 43.0254 170.309 42.3C170.965 41.5534 171.431 40.7214 171.706 39.804L172.85 43.868H171.452C171.113 45.212 170.563 46.4387 169.801 47.548C169.06 48.636 168.012 49.5107 166.657 50.172C165.302 50.812 163.523 51.132 161.321 51.132Z" fill="#0245EF"/>
<path d="M196.805 51.164C194.307 51.164 192.084 50.9187 190.136 50.428C188.209 49.9587 186.569 49.4254 185.213 48.828L184.483 41.724C186.092 42.4707 187.86 43.1214 189.787 43.676C191.734 44.2307 193.873 44.508 196.202 44.508C198.234 44.508 199.706 44.252 200.616 43.74C201.527 43.2067 201.982 42.4174 201.982 41.372V41.18C201.982 40.476 201.77 39.9 201.347 39.452C200.944 39.004 200.225 38.5987 199.187 38.236C198.149 37.852 196.689 37.4467 194.804 37.02C192.2 36.4014 190.136 35.6867 188.612 34.876C187.108 34.044 186.029 33.0307 185.372 31.836C184.716 30.62 184.388 29.1694 184.388 27.484V27.196C184.388 24.2307 185.436 22.0014 187.532 20.508C189.628 18.9934 192.73 18.236 196.837 18.236C199.272 18.236 201.421 18.4814 203.284 18.972C205.168 19.4414 206.735 20.0067 207.984 20.668L208.714 27.196C207.232 26.492 205.57 25.9054 203.728 25.436C201.886 24.9454 199.907 24.7 197.79 24.7C196.414 24.7 195.323 24.8174 194.519 25.052C193.735 25.2654 193.174 25.5747 192.835 25.98C192.496 26.3854 192.327 26.876 192.327 27.452V27.612C192.327 28.252 192.507 28.8067 192.867 29.276C193.248 29.7454 193.936 30.172 194.931 30.556C195.926 30.9187 197.324 31.3134 199.123 31.74C201.749 32.2947 203.855 32.9454 205.443 33.692C207.031 34.4387 208.185 35.3987 208.905 36.572C209.625 37.724 209.985 39.2387 209.985 41.116V41.5C209.985 44.7427 208.895 47.164 206.714 48.764C204.533 50.364 201.23 51.164 196.805 51.164Z" fill="#0245EF"/>
<path d="M257.592 51.164C255.094 51.164 252.871 50.9187 250.923 50.428C248.996 49.9587 247.356 49.4254 246.001 48.828L245.27 41.724C246.879 42.4707 248.647 43.1214 250.574 43.676C252.521 44.2307 254.66 44.508 256.989 44.508C259.021 44.508 260.493 44.252 261.403 43.74C262.314 43.2067 262.769 42.4174 262.769 41.372V41.18C262.769 40.476 262.557 39.9 262.134 39.452C261.731 39.004 261.012 38.5987 259.974 38.236C258.937 37.852 257.476 37.4467 255.591 37.02C252.987 36.4014 250.923 35.6867 249.399 34.876C247.896 34.044 246.816 33.0307 246.159 31.836C245.503 30.62 245.175 29.1694 245.175 27.484V27.196C245.175 24.2307 246.223 22.0014 248.319 20.508C250.415 18.9934 253.517 18.236 257.624 18.236C260.059 18.236 262.208 18.4814 264.071 18.972C265.955 19.4414 267.522 20.0067 268.771 20.668L269.502 27.196C268.019 26.492 266.358 25.9054 264.516 25.436C262.674 24.9454 260.694 24.7 258.577 24.7C257.201 24.7 256.11 24.8174 255.306 25.052C254.522 25.2654 253.961 25.5747 253.622 25.98C253.284 26.3854 253.114 26.876 253.114 27.452V27.612C253.114 28.252 253.294 28.8067 253.654 29.276C254.035 29.7454 254.724 30.172 255.719 30.556C256.713 30.9187 258.111 31.3134 259.911 31.74C262.536 32.2947 264.643 32.9454 266.23 33.692C267.818 34.4387 268.972 35.3987 269.692 36.572C270.412 37.724 270.772 39.2387 270.772 41.116V41.5C270.772 44.7427 269.682 47.164 267.501 48.764C265.32 50.364 262.017 51.164 257.592 51.164Z" fill="#0245EF"/>
<path d="M129.597 50.396V19.004H137.727V50.396H129.597Z" fill="#0245EF"/>
<path d="M235.575 19.004H242.943L231.548 43.676L227.839 51.7063L225.51 56.75H218.069L224.107 43.75L212.695 19.004H220.105L227.839 35.616L235.575 19.004Z" fill="#0245EF"/>
<path d="M118.412 16.5C120.741 16.5 122.63 14.5972 122.63 12.25C122.63 9.90279 120.741 8 118.412 8C116.082 8 114.194 9.90279 114.194 12.25C114.194 14.5972 116.082 16.5 118.412 16.5Z" fill="#4C7EDC"/>
<path d="M144.215 27.5C146.545 27.5 148.433 25.5972 148.433 23.25C148.433 20.9028 146.545 19 144.215 19C141.886 19 139.998 20.9028 139.998 23.25C139.998 25.5972 141.886 27.5 144.215 27.5Z" fill="#4C7EDC"/>
</g>
<path d="M46.625 36.875C46.625 46.6515 38.944 54.5 29.5625 54.5C20.181 54.5 12.5 46.6515 12.5 36.875C12.5 27.0985 20.181 19.25 29.5625 19.25C38.944 19.25 46.625 27.0985 46.625 36.875Z" stroke="#0245EF" stroke-width="3"/>
<path d="M2 50.1577C7.23906 40.2477 17.6095 33.5 29.5468 33.5C41.5131 33.5 51.8983 40.4254 57.125 50.375" stroke="#0245EF" stroke-width="3"/>
<path d="M2 50.3156C2.63331 50.355 3.27182 50.375 3.91495 50.375C20.8756 50.375 34.625 36.4816 34.625 19.3433C34.625 12.9194 32.6933 6.95136 29.3847 2" stroke="#0245EF" stroke-width="3"/>
<path d="M29.7594 2C26.4368 6.93765 24.5 12.8701 24.5 19.2511C24.5 32.6229 33.0054 44.0252 44.945 48.4302C48.3536 49.6877 52.0421 50.375 55.8925 50.375C56.3052 50.375 56.7161 50.3671 57.125 50.3515" stroke="#0245EF" stroke-width="3"/>
<circle cx="29.5" cy="1.5" r="1.5" fill="#0245EF"/>
<circle cx="57.5" cy="50.5" r="1.5" fill="#0245EF"/>
<circle cx="1.5" cy="50.5" r="1.5" fill="#0245EF"/>
<defs>
<clipPath id="clip0_257_215">
<rect width="197" height="49" fill="white" transform="translate(74 8)"/>
</clipPath>
</defs>
</svg>
