<svg width="581" height="564" viewBox="0 0 581 564" fill="none" xmlns="http://www.w3.org/2000/svg">
<g clip-path="url(#clip0_393_695)">
<path d="M427.816 511.413C427.21 512.052 426.579 512.682 425.941 513.313H353.143C352.544 512.698 351.954 512.068 351.363 511.413C351.339 511.389 351.315 511.357 351.291 511.333C343.383 502.571 338.403 489.834 335.299 476.403C335.099 475.589 334.924 474.767 334.748 473.937C333.934 470.162 333.271 466.347 332.729 462.565C332.633 461.91 332.537 461.256 332.457 460.602C331.723 455.167 331.228 449.82 330.909 444.8C330.87 444.154 330.829 443.523 330.79 442.893C330.205 432.899 330.2 422.88 330.774 412.886C330.774 412.886 330.87 412.886 331.053 412.894C331.588 412.918 332.872 412.974 334.764 413.086C339.975 413.405 349.807 414.203 361.371 416.086C362.001 416.19 362.64 416.302 363.278 416.414C373.059 418.03 382.707 420.366 392.143 423.404C392.734 423.604 393.317 423.804 393.907 424.003L393.915 424.043L401.153 460.362L404.154 428.033C406.54 429.111 408.863 430.26 411.089 431.489C411.712 431.832 412.318 432.175 412.917 432.526C418.007 435.411 422.628 439.054 426.619 443.332C450.361 469.643 445.277 493.162 427.816 511.413Z" fill="#F2F2F2"/>
<path d="M397.394 465.359L398.656 466.758C413.244 483.084 421.95 498.239 424.632 512.022C424.675 512.222 424.704 512.422 424.747 512.622L423.813 512.799L422.914 512.958C420.177 497.93 409.985 482.396 397.265 468.152C396.859 467.689 396.447 467.219 396.022 466.762C390.584 460.779 384.737 455.04 378.826 449.674C378.372 449.255 377.905 448.835 377.438 448.415C369.598 441.373 361.711 435.001 354.677 429.631C354.181 429.249 353.679 428.873 353.183 428.504C341.24 419.463 331.973 413.47 329.908 412.156C329.659 411.992 329.518 411.905 329.486 411.884L329.975 411.103L329.975 411.09L330.471 410.303C330.503 410.325 330.977 410.613 331.833 411.172C335.048 413.244 343.689 418.948 354.438 427.057C354.921 427.425 355.424 427.8 355.919 428.182C361.632 432.535 367.88 437.522 374.19 442.981C375.777 444.349 377.325 445.716 378.833 447.08C379.307 447.494 379.774 447.914 380.228 448.333C386.619 454.133 392.341 459.808 397.394 465.359Z" fill="white"/>
<path d="M362.057 414.538C361.842 415.057 361.61 415.576 361.371 416.086C359.548 420.031 357.216 423.72 354.436 427.059C354.029 427.538 353.614 428.025 353.183 428.504C352.018 429.789 350.778 431.031 349.464 432.231C344.087 437.098 337.715 440.737 330.79 442.893C330.566 442.965 330.351 443.036 330.127 443.1C330.167 443.731 330.207 444.353 330.247 445C330.47 444.936 330.686 444.872 330.909 444.8C338.257 442.585 345.02 438.763 350.709 433.611C352.1 432.355 353.424 431.025 354.675 429.629C355.106 429.158 355.521 428.672 355.92 428.185C358.894 424.612 361.369 420.652 363.278 416.414C363.502 415.903 363.725 415.392 363.941 414.873C363.302 414.762 362.672 414.65 362.057 414.538Z" fill="white"/>
<path d="M392.471 421.992C392.375 422.463 392.263 422.934 392.143 423.405C389.98 432.376 385.372 440.572 378.832 447.083C378.377 447.537 377.914 447.984 377.436 448.415C377.3 448.551 377.148 448.695 377.005 448.822C371.055 454.193 363.908 458.064 356.159 460.113C348.41 462.162 340.284 462.33 332.457 460.601C332.274 460.57 332.083 460.522 331.899 460.482C331.995 461.136 332.083 461.799 332.186 462.453C332.37 462.493 332.546 462.533 332.729 462.565C340.754 464.225 349.058 463.971 356.966 461.823C364.875 459.676 372.166 455.695 378.249 450.203C378.441 450.027 378.641 449.86 378.824 449.676C379.303 449.229 379.766 448.782 380.229 448.335C386.922 441.638 391.655 433.237 393.915 424.043C394.035 423.564 394.147 423.085 394.25 422.606C393.66 422.399 393.069 422.191 392.471 421.992Z" fill="white"/>
<path d="M411.089 430.14C411.097 430.587 411.097 431.042 411.089 431.489C410.956 444.101 406.065 456.197 397.395 465.358C396.948 465.837 396.485 466.299 396.022 466.762C395.519 467.249 395.016 467.736 394.498 468.199C386.47 475.434 376.328 479.898 365.57 480.931C354.812 481.964 344.006 479.512 334.748 473.937C334.589 473.854 334.435 473.764 334.285 473.665C334.477 474.511 334.668 475.341 334.876 476.171C335.019 476.251 335.155 476.331 335.299 476.403C344.825 481.715 355.775 483.914 366.614 482.691C377.453 481.469 387.638 476.887 395.743 469.587C396.261 469.117 396.78 468.646 397.267 468.151C397.746 467.696 398.2 467.233 398.656 466.754C407.448 457.481 412.524 445.299 412.917 432.526C412.933 432.095 412.941 431.664 412.941 431.233C412.334 430.858 411.712 430.499 411.089 430.14Z" fill="white"/>
<path d="M229.752 132.732H89.4664C88.299 132.731 87.1797 132.267 86.3542 131.441C85.5287 130.616 85.0644 129.496 85.0631 128.329V21.8094C85.0644 20.642 85.5287 19.5227 86.3542 18.6971C87.1797 17.8716 88.2989 17.4071 89.4664 17.4058H261.66C262.827 17.4071 263.946 17.8716 264.772 18.6971C265.597 19.5227 266.062 20.642 266.063 21.8094V96.421C266.052 106.048 262.223 115.278 255.416 122.085C248.608 128.892 239.379 132.721 229.752 132.732Z" fill="white"/>
<path d="M229.752 133.131H89.4664C88.1932 133.13 86.9726 132.623 86.0723 131.723C85.172 130.823 84.6656 129.602 84.6641 128.329V21.8095C84.6655 20.5363 85.1719 19.3156 86.0722 18.4152C86.9725 17.5149 88.1931 17.0084 89.4664 17.0068H261.66C262.933 17.0083 264.154 17.5148 265.054 18.4152C265.954 19.3155 266.46 20.5363 266.462 21.8095V96.4211C266.451 106.154 262.58 115.485 255.697 122.367C248.815 129.249 239.484 133.12 229.752 133.131ZM89.4664 18.6029C88.6163 18.604 87.8013 18.9422 87.2002 19.5433C86.5992 20.1444 86.2611 20.9594 86.2602 21.8095V128.329C86.2611 129.179 86.5992 129.994 87.2003 130.595C87.8014 131.196 88.6163 131.534 89.4664 131.535H229.752C239.061 131.525 247.987 127.822 254.569 121.239C261.152 114.656 264.855 105.731 264.866 96.4211V21.8095C264.865 20.9594 264.527 20.1444 263.926 19.5433C263.325 18.9422 262.51 18.604 261.66 18.6029H89.4664Z" fill="#CCCCCC"/>
<path d="M227.621 53.3795H123.505C122.549 53.3795 121.632 52.9998 120.956 52.3239C120.28 51.648 119.901 50.7313 119.901 49.7754C119.901 48.8196 120.28 47.9029 120.956 47.227C121.632 46.5511 122.549 46.1714 123.505 46.1714H227.621C228.576 46.1728 229.492 46.5531 230.166 47.2289C230.841 47.9046 231.22 48.8205 231.22 49.7754C231.22 50.7304 230.841 51.6462 230.166 52.322C229.492 52.9977 228.576 53.378 227.621 53.3795Z" fill="#CCCCCC"/>
<path d="M227.621 78.2073H123.505C122.549 78.2073 121.632 77.8276 120.956 77.1517C120.28 76.4759 119.901 75.5592 119.901 74.6033C119.901 73.6475 120.28 72.7308 120.956 72.0549C121.632 71.379 122.549 70.9993 123.505 70.9993H227.621C228.577 70.9993 229.494 71.379 230.17 72.0549C230.846 72.7308 231.225 73.6475 231.225 74.6033C231.225 75.5592 230.846 76.4759 230.17 77.1517C229.494 77.8276 228.577 78.2073 227.621 78.2073Z" fill="#CCCCCC"/>
<path d="M227.621 103.745H123.505C122.549 103.745 121.632 103.365 120.956 102.689C120.28 102.013 119.901 101.097 119.901 100.141C119.901 99.1848 120.28 98.2681 120.956 97.5922C121.632 96.9163 122.549 96.5366 123.505 96.5366H227.621C228.577 96.5366 229.494 96.9163 230.17 97.5922C230.846 98.2681 231.225 99.1848 231.225 100.141C231.225 101.097 230.846 102.013 230.17 102.689C229.494 103.365 228.577 103.745 227.621 103.745Z" fill="#CCCCCC"/>
<path d="M260.367 43.6373C272.253 43.6373 281.889 34.0015 281.889 22.1152C281.889 10.2288 272.253 0.593018 260.367 0.593018C248.48 0.593018 238.845 10.2288 238.845 22.1152C238.845 34.0015 248.48 43.6373 260.367 43.6373Z" fill="#0245EF"/>
<path d="M257.431 33.3165C257.059 33.3165 256.692 33.23 256.36 33.0637C256.028 32.8975 255.739 32.6561 255.516 32.3587L249.644 24.5298C249.455 24.2783 249.318 23.9921 249.24 23.6876C249.162 23.383 249.145 23.0661 249.189 22.7549C249.234 22.4436 249.339 22.1442 249.499 21.8737C249.66 21.6032 249.871 21.3669 250.123 21.1783C250.374 20.9896 250.661 20.8524 250.965 20.7744C251.27 20.6964 251.587 20.6791 251.898 20.7236C252.209 20.7681 252.509 20.8734 252.779 21.0336C253.05 21.1938 253.286 21.4057 253.475 21.6572L257.316 26.7786L267.182 11.9797C267.534 11.4514 268.082 11.0846 268.704 10.9601C269.327 10.8356 269.974 10.9635 270.502 11.3157C271.03 11.6679 271.397 12.2155 271.522 12.8382C271.646 13.4608 271.518 14.1074 271.166 14.6357L259.423 32.2504C259.21 32.569 258.925 32.832 258.59 33.0173C258.255 33.2027 257.88 33.305 257.497 33.3158C257.475 33.3162 257.453 33.3165 257.431 33.3165Z" fill="white"/>
<path d="M177.973 225.249H37.6876C28.0606 225.238 18.8311 221.409 12.0238 214.602C5.21644 207.795 1.38733 198.565 1.37646 188.938V114.326C1.37784 113.159 1.84224 112.039 2.66779 111.214C3.49334 110.388 4.61264 109.924 5.78014 109.922H177.973C179.14 109.924 180.26 110.388 181.085 111.214C181.911 112.039 182.375 113.159 182.377 114.326V220.845C182.375 222.013 181.911 223.132 181.085 223.958C180.26 224.783 179.14 225.248 177.973 225.249Z" fill="white"/>
<path d="M177.973 225.648H37.6876C27.9549 225.637 18.6239 221.766 11.7418 214.884C4.85971 208.002 0.988483 198.671 0.977417 188.938V114.326C0.97886 113.053 1.48532 111.832 2.38569 110.932C3.28606 110.031 4.50681 109.525 5.78012 109.523H177.973C179.246 109.525 180.467 110.031 181.367 110.932C182.268 111.832 182.774 113.053 182.776 114.326V220.846C182.774 222.119 182.268 223.34 181.367 224.24C180.467 225.14 179.246 225.647 177.973 225.648ZM5.78012 111.12C4.92999 111.121 4.11497 111.459 3.51384 112.06C2.91271 112.661 2.57454 113.476 2.57351 114.326V188.938C2.58403 198.248 6.28691 207.173 12.8698 213.756C19.4527 220.339 28.378 224.042 37.6876 224.052H177.973C178.823 224.051 179.638 223.713 180.239 223.112C180.84 222.511 181.179 221.696 181.18 220.846V114.326C181.178 113.476 180.84 112.661 180.239 112.06C179.638 111.459 178.823 111.121 177.973 111.12H5.78012Z" fill="#CCCCCC"/>
<path d="M143.935 145.896H39.8181C38.8622 145.896 37.9455 145.516 37.2696 144.84C36.5938 144.165 36.2141 143.248 36.2141 142.292C36.2141 141.336 36.5938 140.419 37.2696 139.744C37.9455 139.068 38.8622 138.688 39.8181 138.688H143.935C144.891 138.688 145.807 139.068 146.483 139.744C147.159 140.419 147.539 141.336 147.539 142.292C147.539 143.248 147.159 144.165 146.483 144.84C145.807 145.516 144.891 145.896 143.935 145.896Z" fill="#CCCCCC"/>
<path d="M143.935 170.724H39.8181C38.8622 170.724 37.9455 170.344 37.2696 169.668C36.5938 168.992 36.2141 168.076 36.2141 167.12C36.2141 166.164 36.5938 165.247 37.2696 164.571C37.9455 163.896 38.8622 163.516 39.8181 163.516H143.935C144.891 163.516 145.807 163.896 146.483 164.571C147.159 165.247 147.539 166.164 147.539 167.12C147.539 168.076 147.159 168.992 146.483 169.668C145.807 170.344 144.891 170.724 143.935 170.724Z" fill="#CCCCCC"/>
<path d="M143.935 196.262H39.8181C38.8622 196.262 37.9455 195.882 37.2696 195.206C36.5938 194.53 36.2141 193.613 36.2141 192.658C36.2141 191.702 36.5938 190.785 37.2696 190.109C37.9455 189.433 38.8622 189.053 39.8181 189.053H143.935C144.891 189.053 145.807 189.433 146.483 190.109C147.159 190.785 147.539 191.702 147.539 192.658C147.539 193.613 147.159 194.53 146.483 195.206C145.807 195.882 144.891 196.262 143.935 196.262Z" fill="#CCCCCC"/>
<path d="M178.168 137.009C190.054 137.009 199.69 127.373 199.69 115.487C199.69 103.6 190.054 93.9646 178.168 93.9646C166.281 93.9646 156.646 103.6 156.646 115.487C156.646 127.373 166.281 137.009 178.168 137.009Z" fill="#0245EF"/>
<path d="M175.232 126.688C174.86 126.688 174.494 126.601 174.161 126.435C173.829 126.269 173.54 126.027 173.317 125.73L167.445 117.901C167.257 117.65 167.119 117.363 167.041 117.059C166.963 116.754 166.946 116.437 166.99 116.126C167.035 115.815 167.14 115.516 167.301 115.245C167.461 114.975 167.673 114.738 167.924 114.55C168.176 114.361 168.462 114.224 168.766 114.146C169.071 114.068 169.388 114.05 169.699 114.095C170.01 114.139 170.31 114.245 170.58 114.405C170.851 114.565 171.087 114.777 171.276 115.029L175.117 120.15L184.983 105.351C185.335 104.823 185.883 104.456 186.506 104.331C187.128 104.207 187.775 104.335 188.303 104.687C188.831 105.039 189.198 105.587 189.323 106.209C189.447 106.832 189.319 107.479 188.967 108.007L177.224 125.622C177.012 125.94 176.726 126.203 176.391 126.389C176.056 126.574 175.681 126.676 175.298 126.687C175.276 126.688 175.254 126.688 175.232 126.688Z" fill="white"/>
<path d="M352.765 314.537H156.474C146.847 314.526 137.617 310.697 130.81 303.89C124.003 297.082 120.174 287.853 120.163 278.226V168.483C120.165 166.978 120.763 165.536 121.827 164.471C122.891 163.407 124.334 162.809 125.839 162.807H352.765C354.27 162.809 355.712 163.407 356.776 164.471C357.841 165.536 358.439 166.978 358.441 168.483V308.86C358.439 310.365 357.841 311.808 356.777 312.872C355.712 313.936 354.27 314.535 352.765 314.537Z" fill="white"/>
<path d="M352.765 314.936H156.474C146.741 314.925 137.41 311.053 130.528 304.171C123.646 297.289 119.775 287.958 119.764 278.226V168.483C119.766 166.872 120.406 165.328 121.545 164.189C122.684 163.05 124.228 162.41 125.839 162.408H352.765C354.375 162.41 355.92 163.05 357.058 164.189C358.197 165.328 358.838 166.872 358.84 168.483V308.86C358.838 310.471 358.197 312.015 357.059 313.154C355.92 314.293 354.375 314.934 352.765 314.936ZM125.839 164.004C124.652 164.005 123.513 164.478 122.673 165.317C121.834 166.157 121.361 167.296 121.36 168.483V278.226C121.37 287.535 125.073 296.46 131.656 303.043C138.239 309.626 147.164 313.329 156.474 313.34H352.765C353.952 313.338 355.091 312.866 355.93 312.026C356.77 311.186 357.242 310.047 357.244 308.86V168.483C357.242 167.296 356.77 166.157 355.93 165.317C355.091 164.478 353.952 164.005 352.765 164.004H125.839Z" fill="#CCCCCC"/>
<path d="M307.907 220.088H170.696C170.072 220.089 169.454 219.966 168.877 219.728C168.3 219.49 167.776 219.14 167.334 218.699C166.892 218.258 166.542 217.734 166.303 217.157C166.064 216.581 165.941 215.962 165.941 215.338C165.941 214.714 166.064 214.096 166.303 213.519C166.542 212.943 166.892 212.419 167.334 211.978C167.776 211.536 168.3 211.187 168.877 210.948C169.454 210.71 170.072 210.588 170.696 210.589H307.907C308.531 210.588 309.15 210.71 309.727 210.948C310.304 211.187 310.828 211.536 311.27 211.978C311.711 212.419 312.062 212.943 312.301 213.519C312.54 214.096 312.663 214.714 312.663 215.338C312.663 215.962 312.54 216.581 312.301 217.157C312.062 217.734 311.711 218.258 311.27 218.699C310.828 219.14 310.304 219.49 309.727 219.728C309.15 219.966 308.531 220.089 307.907 220.088Z" fill="#CCCCCC"/>
<path d="M307.907 252.807H170.696C170.072 252.808 169.454 252.686 168.877 252.448C168.3 252.209 167.776 251.859 167.334 251.418C166.892 250.977 166.542 250.453 166.303 249.877C166.064 249.3 165.941 248.682 165.941 248.058C165.941 247.433 166.064 246.815 166.303 246.239C166.542 245.662 166.892 245.138 167.334 244.697C167.776 244.256 168.3 243.906 168.877 243.668C169.454 243.43 170.072 243.307 170.696 243.308H307.907C309.167 243.308 310.375 243.809 311.266 244.699C312.156 245.59 312.657 246.798 312.657 248.058C312.657 249.317 312.156 250.525 311.266 251.416C310.375 252.307 309.167 252.807 307.907 252.807Z" fill="#CCCCCC"/>
<path d="M307.907 286.462H170.696C169.437 286.462 168.229 285.962 167.338 285.071C166.447 284.18 165.947 282.972 165.947 281.712C165.947 280.453 166.447 279.245 167.338 278.354C168.229 277.463 169.437 276.963 170.696 276.963H307.907C308.532 276.962 309.15 277.084 309.727 277.323C310.304 277.561 310.828 277.911 311.27 278.352C311.711 278.793 312.062 279.317 312.301 279.893C312.54 280.47 312.663 281.088 312.663 281.712C312.663 282.337 312.54 282.955 312.301 283.532C312.062 284.108 311.711 284.632 311.27 285.073C310.828 285.514 310.304 285.864 309.727 286.102C309.15 286.341 308.532 286.463 307.907 286.462Z" fill="#CCCCCC"/>
<path d="M353.478 198.642C368.524 198.642 380.722 186.445 380.722 171.398C380.722 156.351 368.524 144.154 353.478 144.154C338.431 144.154 326.233 156.351 326.233 171.398C326.233 186.445 338.431 198.642 353.478 198.642Z" fill="#0245EF"/>
<path d="M349.761 185.577C349.29 185.577 348.826 185.468 348.406 185.257C347.985 185.047 347.619 184.741 347.337 184.365L339.904 174.455C339.665 174.136 339.492 173.774 339.393 173.388C339.294 173.003 339.272 172.602 339.328 172.208C339.385 171.814 339.518 171.435 339.721 171.092C339.924 170.75 340.192 170.451 340.51 170.212C340.829 169.973 341.191 169.799 341.576 169.701C341.962 169.602 342.363 169.58 342.757 169.636C343.151 169.693 343.53 169.826 343.873 170.029C344.215 170.231 344.514 170.5 344.753 170.818L349.616 177.301L362.105 158.568C362.551 157.9 363.244 157.437 364.032 157.28C364.82 157.123 365.637 157.285 366.306 157.73C366.974 158.176 367.438 158.868 367.596 159.656C367.754 160.443 367.593 161.261 367.148 161.93L352.283 184.228C352.014 184.631 351.652 184.964 351.228 185.199C350.804 185.433 350.33 185.563 349.845 185.576C349.817 185.577 349.789 185.577 349.761 185.577Z" fill="white"/>
<path d="M444.058 491.562L432.974 495.269L413.4 454.279L429.76 448.808L444.058 491.562Z" fill="#FFB6B6"/>
<path d="M450.479 501.361L414.738 510.92L414.587 510.468C413.344 506.752 413.623 505.168 415.372 501.662C416.227 499.935 417.416 498.395 418.871 497.131C420.325 495.867 422.016 494.904 423.845 494.298L423.846 494.298L428.718 487.161L442.555 488.041L445.675 486.997L450.479 501.361Z" fill="#2F2E41"/>
<path d="M471.444 501.984H459.757L454.196 456.902L471.446 456.903L471.444 501.984Z" fill="#FFB6B6"/>
<path d="M474.425 510.92L436.738 510.918V510.442C436.738 506.524 438.264 505.234 441.035 502.463C442.394 501.097 444.011 500.014 445.791 499.277C447.571 498.539 449.48 498.162 451.407 498.167H451.408L458.292 492.945L471.136 498.168L474.426 498.168L474.425 510.92Z" fill="#2F2E41"/>
<path d="M361.296 156.357C361.766 157.4 362.459 158.328 363.326 159.075C364.193 159.821 365.214 160.369 366.315 160.678C367.417 160.988 368.573 161.052 369.702 160.867C370.831 160.681 371.906 160.25 372.851 159.605L387.833 169.375L395.991 161.719L374.64 148.218C373.45 146.703 371.745 145.677 369.849 145.335C367.953 144.992 365.998 145.357 364.353 146.361C362.708 147.364 361.489 148.936 360.925 150.778C360.362 152.62 360.494 154.605 361.296 156.357Z" fill="#FFB6B6"/>
<path d="M454.098 201.21L458.22 194.323L420.025 172.553L381.828 151.694L375.956 166.109L416.296 189.31L454.098 201.21Z" fill="#E4E4E4"/>
<path d="M448.202 425.41C448.202 417.501 448.359 411.86 448.485 407.327C448.853 394.06 448.952 390.494 443.875 367.649L442.571 361.782L434.882 384.848C432.426 392.206 431.171 399.912 431.165 407.669L443.021 478.8H418.79L401.044 401.9L401.036 378.378C399.472 376.76 398.598 374.598 398.598 372.348C398.598 370.097 399.472 367.935 401.036 366.317L406.931 331.077L412.899 283.582H478.265C478.265 283.582 489.801 307.493 478.337 331.212L478.336 425.44L472.412 490.592H454.127L448.202 425.41Z" fill="#2F2E41"/>
<path d="M474.269 289.331L413.128 284.236L412.81 284.21L417.69 196.382C417.976 190.86 419.914 185.551 423.252 181.142C426.589 176.733 431.173 173.428 436.411 171.654V165.507C436.412 163.986 437.018 162.528 438.093 161.452C439.169 160.376 440.627 159.771 442.149 159.77H451.082C452.148 159.766 453.194 160.061 454.101 160.622C455.009 161.182 455.741 161.986 456.214 162.941L460.583 171.678L477.101 184.893C485.259 191.42 478.693 256.858 478.34 260.311L482.335 280.286C482.555 281.385 482.528 282.519 482.257 283.607C481.986 284.694 481.478 285.708 480.769 286.575C480.059 287.443 479.167 288.142 478.155 288.623C477.143 289.105 476.037 289.356 474.916 289.359C474.701 289.358 474.486 289.349 474.269 289.331Z" fill="#E4E4E4"/>
<path d="M409.521 312.521C410.487 311.732 411.269 310.74 411.811 309.616C412.353 308.492 412.642 307.262 412.657 306.014C412.673 304.767 412.414 303.531 411.9 302.393C411.386 301.256 410.629 300.246 409.682 299.433L415.749 280.893L405.381 274.459L397.182 300.761C395.922 302.442 395.322 304.527 395.497 306.62C395.671 308.714 396.607 310.671 398.128 312.121C399.649 313.571 401.649 314.412 403.749 314.486C405.848 314.559 407.902 313.86 409.521 312.521Z" fill="#FFB6B6"/>
<path d="M430.843 186.486L422.426 183.68L410.268 237.922L399.071 291.865L415.912 294.343L428.972 236.987L430.843 186.486Z" fill="#E4E4E4"/>
<path d="M440.035 154.156C451.125 154.156 460.115 145.165 460.115 134.075C460.115 122.985 451.125 113.994 440.035 113.994C428.944 113.994 419.954 122.985 419.954 134.075C419.954 145.165 428.944 154.156 440.035 154.156Z" fill="#FFB6B6"/>
<path d="M413.016 124.241C413.201 122.338 413.747 120.487 414.623 118.788C415.562 120.83 418.49 121.184 420.494 120.168C422.498 119.152 423.841 117.222 425.273 115.491C429.052 110.923 434.25 107.217 440.14 106.542C446.03 105.867 452.523 108.841 454.748 114.336C455.747 112.949 457.878 112.795 459.385 113.601C460.841 114.519 461.977 115.865 462.638 117.454C464.12 120.496 464.958 123.811 465.099 127.192C465.239 130.572 464.679 133.946 463.454 137.1C460.974 143.376 454.849 151.832 448.53 154.201C444.693 155.639 440.819 153.799 436.738 154.201C436.952 149.748 437.815 144.254 438.029 139.801C438.146 137.362 438.163 134.634 436.497 132.849C435.986 132.364 435.375 131.997 434.707 131.774C434.038 131.552 433.329 131.478 432.629 131.56C431.93 131.642 431.256 131.876 430.657 132.247C430.058 132.618 429.548 133.115 429.162 133.705C428.956 132.321 428.488 130.988 427.784 129.778C427.423 129.178 426.902 128.691 426.279 128.372C425.655 128.052 424.955 127.913 424.257 127.971C422.554 128.25 421.501 129.999 419.938 130.731C419.05 131.087 418.074 131.163 417.142 130.95C416.21 130.736 415.365 130.242 414.721 129.535C414.095 128.813 413.621 127.972 413.328 127.062C413.035 126.152 412.929 125.193 413.016 124.241Z" fill="#2F2E41"/>
<path opacity="0.1" d="M442.634 236.743L419.051 283.909H436.739L442.634 236.743Z" fill="black"/>
<path d="M600.697 512.363C600.698 512.488 600.673 512.611 600.626 512.727C600.578 512.842 600.508 512.947 600.42 513.035C600.332 513.123 600.227 513.193 600.111 513.241C599.996 513.289 599.872 513.313 599.747 513.312H149.417C149.165 513.312 148.924 513.212 148.746 513.034C148.568 512.856 148.468 512.615 148.468 512.363C148.468 512.111 148.568 511.869 148.746 511.691C148.924 511.513 149.165 511.413 149.417 511.413H599.747C599.872 511.413 599.996 511.437 600.111 511.485C600.227 511.532 600.332 511.602 600.42 511.69C600.508 511.779 600.578 511.884 600.626 511.999C600.673 512.114 600.698 512.238 600.697 512.363Z" fill="#CACACA"/>
</g>
<defs>
<clipPath id="clip0_393_695">
<rect width="579.72" height="562.719" fill="white" transform="translate(0.977417 0.593018)"/>
</clipPath>
</defs>
</svg>
